<svg width="678" height="683" viewBox="0 0 678 683" fill="none" xmlns="http://www.w3.org/2000/svg">
<path fill-rule="evenodd" clip-rule="evenodd" d="M306.646 0.655668C238.945 7.44874 177.725 32.3875 125.659 74.3819C98.1116 96.6013 68.392 130.446 49.8181 160.749C14.4085 218.521 -3.74227 292.663 0.646982 361.612C6.13908 447.885 39.1776 521.511 99.5595 582.03C126.83 609.362 150.073 626.598 182.056 643.203C215.404 660.516 229.119 664.122 243.273 659.297C250.44 656.855 259.578 648.467 263.902 640.361L266.933 634.679L267.584 525.715C267.942 465.785 268.722 416.263 269.319 415.666C269.914 415.07 297.159 414.248 329.865 413.84C395.132 413.027 397.283 412.779 409.022 404.7C422.17 395.653 436.286 374.005 439.722 357.623C442.324 345.215 449.701 346.208 354.865 346.208C276.138 346.208 271.783 346.085 269.739 343.826C267.85 341.738 267.586 337.277 267.592 307.685C267.599 273.103 268.485 265.162 272.582 262.97C273.904 262.262 311.749 261.517 362.692 261.194C422.439 260.816 453.646 260.136 460.29 259.069C465.661 258.204 478.258 254.758 488.284 251.409C502.566 246.64 508.909 243.72 517.58 237.921C538.499 223.931 559.405 203.134 572.005 183.778C575.371 178.607 579.005 174.369 580.079 174.36C581.154 174.35 590.409 183.416 600.645 194.507C611.008 205.733 620.266 214.67 621.533 214.67C623.536 214.67 625.653 203.551 639.084 122.529C647.483 71.8501 654.343 29.4025 654.327 28.1991C654.302 26.4214 653.625 26.213 650.716 27.0882C648.746 27.6808 612.566 41.4388 570.314 57.6636C528.062 73.887 489.391 88.7012 484.378 90.5844C472.797 94.9343 471.138 96.307 474.246 98.9651C475.521 100.056 487.112 106.985 500.002 114.363C529.943 131.499 529.305 131.093 529.261 132.977C529.24 133.856 523.528 141.284 516.566 149.482C497.096 172.411 475.761 187.351 455.732 192.078C447.796 193.951 432.64 194.33 338.547 195.007C231.541 195.778 230.416 195.813 224.422 198.585C213.265 203.743 203.73 215.985 199.959 229.995C198.883 233.99 198.476 282.499 198.481 406.174C198.488 590.481 198.882 580.349 191.841 576.624C183.606 572.269 162.432 555.136 148.626 541.66C102.299 496.434 75.2865 445.203 64.8569 382.788C61.6369 363.521 61.6617 314.61 64.8999 296.075C73.6003 246.27 93.3291 201.577 122.679 165.181C133.15 152.196 158.251 128.001 171.259 118.353C235.457 70.7431 313.741 53.371 389.978 69.8171C415.712 75.369 415.93 75.3352 459.639 58.8448C485.319 49.1566 497.398 43.9941 497.398 42.7034C497.398 40.2485 471.857 27.5297 453.128 20.6585C425.863 10.6564 396.805 3.78132 370.635 1.14145C358.233 -0.108812 317.365 -0.420075 306.646 0.655668ZM657.727 224.946C656.826 230.577 654.944 233.261 628.401 266.764L612.411 286.951L613.137 294.765C616.261 328.324 616.732 342.15 615.36 359.974C611.48 410.359 597.293 452.348 570.28 493.401C525.02 562.186 461.141 604.036 382.166 616.64C372.749 618.143 359.897 618.858 340.872 618.936C318.107 619.031 312.927 619.394 311.414 621.004C310.365 622.123 308.366 631.032 306.742 641.842C305.181 652.228 303.129 664.671 302.183 669.493C300.241 679.387 300.658 680.249 307.948 681.397C326.387 684.297 362.746 683.163 390.629 678.817C461.37 667.792 526.761 634.258 577.762 582.849C632.908 527.261 667.887 453.65 676.406 375.263C679.856 343.504 677.536 294.272 671.112 262.912C668.129 248.355 660.982 222.3 659.553 220.775C659.008 220.193 658.186 222.07 657.727 224.946Z" fill="url(#paint0_linear_17_9)"/>
<defs>
<linearGradient id="paint0_linear_17_9" x1="610.027" y1="75.9694" x2="217.337" y2="643.062" gradientUnits="userSpaceOnUse">
<stop stop-color="#9674FC"/>
<stop offset="1" stop-color="#2B7CB8"/>
</linearGradient>
</defs>
</svg>
